{"asset":{"version":"2.0","generator":"VECTARY"},"nodes":[{"translation":[0,-0.01,-1.7763568394002505e-18],"scale":[0.0001,0.0001,0.0001],"rotation":[-0.7071067811865475,0,0,0.7071067811865476],"name":"root","mesh":0}],"materials":[{"pbrMetallicRoughness":{"baseColorFactor":[0.01517084567432585,0.025301558217143402,0.3250369625210763,1],"metallicFactor":0,"roughnessFactor":0.7},"name":"Tokyo 8_bc18b995-f465-472e-a919-6a702a471770","emissiveFactor":[0,0,0],"extensions":{},"alphaMode":"OPAQUE","doubleSided":false}],"meshes":[{"primitives":[{"mode":4,"attributes":{"POSITION":1,"NORMAL":2,"TEXCOORD_0":3},"material":0,"indices":0}]}],"accessors":[{"bufferView":0,"byteOffset":0,"componentType":5125,"count":3369984,"type":"SCALAR"},{"bufferView":1,"byteOffset":0,"componentType":5126,"count":676480,"max":[5030.7431640625,4798.615234375,4340.5185546875],"min":[-5030.7431640625,-4798.615234375,0],"type":"VEC3"},{"bufferView":2,"byteOffset":0,"componentType":5126,"count":676480,"type":"VEC3"},{"bufferView":3,"byteOffset":0,"componentType":5126,"count":676480,"type":"VEC2"}],"bufferViews":[{"buffer":0,"byteOffset":0,"byteLength":13479936,"target":34963},{"buffer":0,"byteOffset":13479936,"byteLength":8117760,"target":34962},{"buffer":0,"byteOffset":21597696,"byteLength":8117760,"target":34962},{"buffer":0,"byteOffset":29715456,"byteLength":5411840,"target":34962}],"scene":0,"scenes":[{"nodes":[0],"name":"double-truss"}],"extensionsUsed":["KHR_texture_transform"],"buffers":[{"byteLength":35127296,"uri":"double-truss.bin"}]}