{"asset":{"version":"2.0","generator":"VECTARY"},"nodes":[{"translation":[-0.001914219356625722,-0.0016160408258438109,-0.000383656683752861],"scale":[0.0009807337021731435,0.0009807337021731435,0.0009807337021731435],"rotation":[-0.7071067811865475,0,0,0.7071067811865476],"name":"root","mesh":0}],"materials":[{"pbrMetallicRoughness":{"baseColorFactor":[0.01517084567432585,0.025301558217143402,0.3250369625210763,1],"metallicFactor":0,"roughnessFactor":0.7},"name":"Tokyo 8_bc18b995-f465-472e-a919-6a702a471770","emissiveFactor":[0,0,0],"extensions":{},"alphaMode":"OPAQUE","doubleSided":false}],"meshes":[{"primitives":[{"mode":4,"attributes":{"POSITION":1,"NORMAL":2,"TEXCOORD_0":3},"material":0,"indices":0}]}],"accessors":[{"bufferView":0,"byteOffset":0,"componentType":5125,"count":1379328,"type":"SCALAR"},{"bufferView":1,"byteOffset":0,"componentType":5126,"count":334776,"max":[526.7440185546875,455.86474609375,398.63018798828125],"min":[-526.7440185546875,-455.86474609375,0],"type":"VEC3"},{"bufferView":2,"byteOffset":0,"componentType":5126,"count":334776,"type":"VEC3"},{"bufferView":3,"byteOffset":0,"componentType":5126,"count":334776,"type":"VEC2"}],"bufferViews":[{"buffer":0,"byteOffset":0,"byteLength":5517312,"target":34963},{"buffer":0,"byteOffset":5517312,"byteLength":4017312,"target":34962},{"buffer":0,"byteOffset":9534624,"byteLength":4017312,"target":34962},{"buffer":0,"byteOffset":13551936,"byteLength":2678208,"target":34962}],"scene":0,"scenes":[{"nodes":[0],"name":"single-truss"}],"extensionsUsed":["KHR_texture_transform"],"buffers":[{"byteLength":16230144,"uri":"single-truss.bin"}]}